<svg width="62" height="66" viewBox="0 0 62 66" fill="none" xmlns="http://www.w3.org/2000/svg">
<path fill-rule="evenodd" clip-rule="evenodd" d="M57.0402 55.0167C57.0402 55.4488 57.3924 55.8355 57.9368 56.0026C60.5805 56.809 62.2396 59.0066 61.9717 61.3465C61.6816 63.8689 58.7626 65.9995 55.5956 65.9995H6.40438C3.23739 65.9995 0.318409 63.8679 0.0282465 61.3465C-0.239596 59.0066 1.41954 56.808 4.06324 56.0015C4.60761 55.8345 4.95977 55.4478 4.95977 55.0146V52.5922C4.95977 52.023 5.51529 51.561 6.19978 51.561C6.88427 51.561 7.43979 52.023 7.43979 52.5922V55.0146C7.43979 56.3223 6.44902 57.469 4.91761 57.9372C3.3304 58.4219 2.33591 59.7429 2.49711 61.1506C2.66699 62.6345 4.49353 63.937 6.40438 63.937H55.5931C57.504 63.937 59.3305 62.6345 59.5004 61.1506C59.6616 59.7429 58.6659 58.4219 57.0799 57.9382C55.5473 57.47 54.5577 56.3243 54.5577 55.0167V36.0933C54.5577 27.2287 46.5969 19.8985 36.3122 18.7404C38.1028 20.1223 39.6776 22.3178 39.6776 25.7818C39.6776 26.3511 39.1221 26.8131 38.4376 26.8131C37.7531 26.8131 37.1976 26.3511 37.1976 25.7818C37.1976 20.0584 32.0974 18.792 31.0025 18.5858C29.9187 18.7972 24.7975 20.0955 24.7975 25.7818C24.7975 26.3511 24.2419 26.8131 23.5575 26.8131C22.873 26.8131 22.3174 26.3511 22.3174 25.7818C22.3174 22.3178 23.8923 20.1223 25.6828 18.7404C15.3982 19.8985 7.43731 27.2287 7.43731 36.0943V48.4693C7.43731 49.0386 6.88179 49.5005 6.1973 49.5005C5.51281 49.5005 4.95729 49.0386 4.95729 48.4693V36.0943C4.95729 26.9079 12.6082 19.1993 22.8829 17.0904C22.5307 16.6181 22.3174 16.0654 22.3174 15.4693C22.3174 13.8564 23.8141 12.5437 25.7101 12.4034C24.8768 9.53035 23.5922 6.77073 21.8239 4.19673L20.0011 1.54333C19.7308 1.14939 19.8015 0.653359 20.1772 0.323359C20.5529 -0.007672 21.1432 -0.094297 21.633 0.108859C27.497 2.54776 34.4993 2.54776 40.3633 0.108859C40.8531 -0.0932657 41.4434 -0.00664074 41.8191 0.323359C42.1948 0.653359 42.2667 1.14939 41.9952 1.54333L40.1724 4.19673C39.0415 5.84157 38.0619 7.66482 37.2596 9.61595C37.0376 10.1543 36.3333 10.444 35.6848 10.2584C35.0362 10.0738 34.6903 9.48704 34.9122 8.94873C35.7654 6.87489 36.8107 4.93201 38.0185 3.17373L38.0705 3.09845C33.4813 4.29986 28.5163 4.29986 23.927 3.09845L23.9791 3.17373C25.9581 6.05298 27.3754 9.14879 28.2546 12.3756H35.96C38.011 12.3756 39.6801 13.7636 39.6801 15.4693C39.6801 16.0654 39.4668 16.6181 39.1146 17.0904C49.3881 19.1983 57.0402 26.9069 57.0402 36.0933V55.0167ZM24.7999 15.4683C24.7999 16.0365 25.3567 16.4995 26.04 16.4995H35.96C36.6433 16.4995 37.2001 16.0365 37.2001 15.4683C37.2001 14.9001 36.6433 14.437 35.96 14.437H26.04C25.3567 14.437 24.7999 14.9001 24.7999 15.4683ZM27.2501 35.358C26.4478 35.162 25.6232 35.062 24.8023 35.062H19.8423C19.1578 35.062 18.6023 35.524 18.6023 36.0933V40.2183C18.6023 42.2581 19.6538 44.2133 21.4878 45.5838C21.7246 45.7612 22.021 45.8478 22.3161 45.8478C22.6559 45.8478 22.9944 45.7323 23.2387 45.5055C23.6963 45.0816 23.6541 44.4299 23.1457 44.0494C21.835 43.0697 21.0823 41.6734 21.0823 40.2183V37.1245H24.8023C25.3864 37.1245 25.9754 37.1957 26.5508 37.3369C27.2117 37.4989 27.8962 37.1854 28.0896 36.6378C28.2831 36.0912 27.9073 35.5189 27.2501 35.358ZM34.7175 49.4995C34.0331 49.4995 33.4775 49.9615 33.4775 50.5308C33.4775 51.1 34.0331 51.562 34.7175 51.562C39.504 51.562 43.3976 48.3239 43.3976 44.3433V38.1558C43.3976 37.5865 42.8421 37.1245 42.1576 37.1245H34.7175C29.9311 37.1245 26.0375 40.3626 26.0375 44.3433V50.1038L23.9208 51.8642C23.4359 52.2674 23.4359 52.9191 23.9208 53.3223C24.1626 53.5234 24.48 53.6245 24.7974 53.6245C25.1149 53.6245 25.4323 53.5234 25.6741 53.3223L28.1542 51.2598L38.0742 43.0099C38.5591 42.6066 38.5591 41.9549 38.0742 41.5517C37.5894 41.1484 36.8057 41.1484 36.3209 41.5517L28.5175 48.0413V44.3433C28.5175 41.5001 31.2988 39.187 34.7175 39.187H40.9176V44.3433C40.9176 47.1864 38.1362 49.4995 34.7175 49.4995Z" fill="black"/>
</svg>
