<svg width="80" height="80" viewBox="0 0 80 80" fill="none" xmlns="http://www.w3.org/2000/svg">
<mask id="path-1-inside-1_627_2851" fill="white">
<path fill-rule="evenodd" clip-rule="evenodd" d="M71.25 61.2501C71.25 61.9401 71.81 62.5001 72.5 62.5001C73.19 62.5001 73.75 61.9401 73.75 61.2501C73.75 56.4252 69.825 52.5002 65 52.5002H63.75V50.0002H65C65.69 50.0002 66.25 49.4402 66.25 48.7502V46.2502C66.25 42.8039 63.4463 40.0002 60 40.0002H47.5C46.81 40.0002 46.25 40.5602 46.25 41.2502V46.2502C46.25 47.8777 47.2988 49.2527 48.75 49.7702V52.4139C47.1287 52.2239 45.5725 51.6077 44.2912 50.5827L42.835 49.4177C41.29 48.1814 39.3475 47.5002 37.3688 47.5002H33.1688L8.31375 10.2178C7.325 8.73529 7.5225 6.74529 8.7825 5.4853L12.1337 2.13406C12.6225 1.64531 12.6225 0.85531 12.1337 0.366561C11.645 -0.122187 10.855 -0.122187 10.3663 0.366561L7.015 3.7178C4.915 5.8178 4.5875 9.13404 6.23375 11.604L31.25 49.1289V51.6177L1.86125 35.159C1.47375 34.9415 1.00125 34.9465 0.6175 35.1715C0.23375 35.3965 0 35.8065 0 36.2502V46.2502C0 56.5889 8.41125 65.0001 18.75 65.0001H20.2675C20.9575 65.0001 21.5175 64.4401 21.5175 63.7501C21.5175 63.0601 20.9575 62.5001 20.2675 62.5001H18.75C9.79 62.5001 2.5 55.2102 2.5 46.2502V38.3827L31.25 54.4827V56.2502C31.25 56.9402 31.81 57.5001 32.5 57.5001C33.19 57.5001 33.75 56.9402 33.75 56.2502V50.0002H37.37C38.7837 50.0002 40.17 50.4864 41.275 51.3702L42.7313 52.5352C44.7175 54.1252 47.2137 55.0002 49.7588 55.0002H65.0013C68.4475 55.0002 71.25 57.8039 71.25 61.2501ZM61.25 52.5002H51.25V50.0002H61.25V52.5002ZM48.75 42.5002H60C62.0675 42.5002 63.75 44.1827 63.75 46.2502V47.5002H50C49.3112 47.5002 48.75 46.9389 48.75 46.2502V42.5002ZM32.5005 60.0001C26.9867 60.0001 22.5005 64.4863 22.5005 70C22.5005 75.5138 26.9867 80 32.5005 80C38.0142 80 42.5005 75.5138 42.5005 70C42.5005 64.4863 38.0142 60.0001 32.5005 60.0001ZM32.5005 77.5C28.3642 77.5 25.0005 74.1363 25.0005 70C25.0005 65.8638 28.3642 62.5 32.5005 62.5C36.6367 62.5 40.0005 65.8638 40.0005 70C40.0005 74.1363 36.6367 77.5 32.5005 77.5ZM72.5 64.9998C68.3637 64.9998 65 68.3636 65 72.4998C65 76.636 68.3637 79.9998 72.5 79.9998C76.6363 79.9998 80 76.636 80 72.4998C80 68.3636 76.6363 64.9998 72.5 64.9998ZM72.5 77.4998C69.7425 77.4998 67.5 75.2573 67.5 72.4998C67.5 69.7423 69.7425 67.4998 72.5 67.4998C75.2575 67.4998 77.5 69.7423 77.5 72.4998C77.5 75.2573 75.2575 77.4998 72.5 77.4998ZM46.0109 71.2503H61.2496C61.9396 71.2503 62.4996 71.8103 62.4996 72.5003C62.4996 73.1903 61.9396 73.7503 61.2496 73.7503H46.0109C45.3209 73.7503 44.7609 73.1903 44.7609 72.5003C44.7609 71.8103 45.3209 71.2503 46.0109 71.2503ZM59.8684 65.5585C59.6484 65.9972 59.2071 66.2497 58.7484 66.2497C58.5609 66.2497 58.3709 66.2072 58.1909 66.1172C57.5734 65.8085 57.3234 65.0572 57.6321 64.4398L60.1321 59.4398C60.4409 58.8235 61.1909 58.571 61.8097 58.881C62.4272 59.1898 62.6772 59.941 62.3684 60.5585L59.8684 65.5585ZM53.7486 66.2497C54.2074 66.2497 54.6486 65.9972 54.8686 65.5585L57.3686 60.5585C57.6774 59.941 57.4274 59.1898 56.8099 58.881C56.1911 58.571 55.4411 58.8235 55.1324 59.4398L52.6324 64.4398C52.3236 65.0572 52.5736 65.8085 53.1911 66.1172C53.3711 66.2072 53.5611 66.2497 53.7486 66.2497ZM49.8689 65.5585C49.6489 65.9972 49.2076 66.2497 48.7489 66.2497C48.5614 66.2497 48.3714 66.2072 48.1914 66.1172C47.5739 65.8085 47.3239 65.0572 47.6326 64.4398L50.1326 59.4398C50.4414 58.8235 51.1901 58.571 51.8101 58.881C52.4276 59.1898 52.6776 59.941 52.3689 60.5585L49.8689 65.5585Z"/>
</mask>
<path fill-rule="evenodd" clip-rule="evenodd" d="M71.25 61.2501C71.25 61.9401 71.81 62.5001 72.5 62.5001C73.19 62.5001 73.75 61.9401 73.75 61.2501C73.75 56.4252 69.825 52.5002 65 52.5002H63.75V50.0002H65C65.69 50.0002 66.25 49.4402 66.25 48.7502V46.2502C66.25 42.8039 63.4463 40.0002 60 40.0002H47.5C46.81 40.0002 46.25 40.5602 46.25 41.2502V46.2502C46.25 47.8777 47.2988 49.2527 48.75 49.7702V52.4139C47.1287 52.2239 45.5725 51.6077 44.2912 50.5827L42.835 49.4177C41.29 48.1814 39.3475 47.5002 37.3688 47.5002H33.1688L8.31375 10.2178C7.325 8.73529 7.5225 6.74529 8.7825 5.4853L12.1337 2.13406C12.6225 1.64531 12.6225 0.85531 12.1337 0.366561C11.645 -0.122187 10.855 -0.122187 10.3663 0.366561L7.015 3.7178C4.915 5.8178 4.5875 9.13404 6.23375 11.604L31.25 49.1289V51.6177L1.86125 35.159C1.47375 34.9415 1.00125 34.9465 0.6175 35.1715C0.23375 35.3965 0 35.8065 0 36.2502V46.2502C0 56.5889 8.41125 65.0001 18.75 65.0001H20.2675C20.9575 65.0001 21.5175 64.4401 21.5175 63.7501C21.5175 63.0601 20.9575 62.5001 20.2675 62.5001H18.75C9.79 62.5001 2.5 55.2102 2.5 46.2502V38.3827L31.25 54.4827V56.2502C31.25 56.9402 31.81 57.5001 32.5 57.5001C33.19 57.5001 33.75 56.9402 33.75 56.2502V50.0002H37.37C38.7837 50.0002 40.17 50.4864 41.275 51.3702L42.7313 52.5352C44.7175 54.1252 47.2137 55.0002 49.7588 55.0002H65.0013C68.4475 55.0002 71.25 57.8039 71.25 61.2501ZM61.25 52.5002H51.25V50.0002H61.25V52.5002ZM48.75 42.5002H60C62.0675 42.5002 63.75 44.1827 63.75 46.2502V47.5002H50C49.3112 47.5002 48.75 46.9389 48.75 46.2502V42.5002ZM32.5005 60.0001C26.9867 60.0001 22.5005 64.4863 22.5005 70C22.5005 75.5138 26.9867 80 32.5005 80C38.0142 80 42.5005 75.5138 42.5005 70C42.5005 64.4863 38.0142 60.0001 32.5005 60.0001ZM32.5005 77.5C28.3642 77.5 25.0005 74.1363 25.0005 70C25.0005 65.8638 28.3642 62.5 32.5005 62.5C36.6367 62.5 40.0005 65.8638 40.0005 70C40.0005 74.1363 36.6367 77.5 32.5005 77.5ZM72.5 64.9998C68.3637 64.9998 65 68.3636 65 72.4998C65 76.636 68.3637 79.9998 72.5 79.9998C76.6363 79.9998 80 76.636 80 72.4998C80 68.3636 76.6363 64.9998 72.5 64.9998ZM72.5 77.4998C69.7425 77.4998 67.5 75.2573 67.5 72.4998C67.5 69.7423 69.7425 67.4998 72.5 67.4998C75.2575 67.4998 77.5 69.7423 77.5 72.4998C77.5 75.2573 75.2575 77.4998 72.5 77.4998ZM46.0109 71.2503H61.2496C61.9396 71.2503 62.4996 71.8103 62.4996 72.5003C62.4996 73.1903 61.9396 73.7503 61.2496 73.7503H46.0109C45.3209 73.7503 44.7609 73.1903 44.7609 72.5003C44.7609 71.8103 45.3209 71.2503 46.0109 71.2503ZM59.8684 65.5585C59.6484 65.9972 59.2071 66.2497 58.7484 66.2497C58.5609 66.2497 58.3709 66.2072 58.1909 66.1172C57.5734 65.8085 57.3234 65.0572 57.6321 64.4398L60.1321 59.4398C60.4409 58.8235 61.1909 58.571 61.8097 58.881C62.4272 59.1898 62.6772 59.941 62.3684 60.5585L59.8684 65.5585ZM53.7486 66.2497C54.2074 66.2497 54.6486 65.9972 54.8686 65.5585L57.3686 60.5585C57.6774 59.941 57.4274 59.1898 56.8099 58.881C56.1911 58.571 55.4411 58.8235 55.1324 59.4398L52.6324 64.4398C52.3236 65.0572 52.5736 65.8085 53.1911 66.1172C53.3711 66.2072 53.5611 66.2497 53.7486 66.2497ZM49.8689 65.5585C49.6489 65.9972 49.2076 66.2497 48.7489 66.2497C48.5614 66.2497 48.3714 66.2072 48.1914 66.1172C47.5739 65.8085 47.3239 65.0572 47.6326 64.4398L50.1326 59.4398C50.4414 58.8235 51.1901 58.571 51.8101 58.881C52.4276 59.1898 52.6776 59.941 52.3689 60.5585L49.8689 65.5585Z" fill="black"/>
<path d="M63.75 52.5002H58.75V57.5002H63.75V52.5002ZM63.75 50.0002V45.0002H58.75V50.0002H63.75ZM48.75 49.7702H53.75V46.2447L50.4294 45.0606L48.75 49.7702ZM48.75 52.4139L48.168 57.3799L53.75 58.0341V52.4139H48.75ZM44.2912 50.5827L47.4147 46.6783L44.2912 50.5827ZM42.835 49.4177L39.7111 53.3217L39.7115 53.322L42.835 49.4177ZM33.1688 47.5002L29.0085 50.2737L30.4928 52.5002H33.1688V47.5002ZM8.31375 10.2178L12.474 7.44428L12.4735 7.44347L8.31375 10.2178ZM8.7825 5.4853L12.318 9.02084H12.318L8.7825 5.4853ZM12.1337 2.13406L15.6693 5.6696L15.6693 5.66959L12.1337 2.13406ZM12.1337 0.366561L15.6693 -3.16898L15.6693 -3.16898L12.1337 0.366561ZM10.3663 0.366561L6.83072 -3.16898L6.83072 -3.16898L10.3663 0.366561ZM7.015 3.7178L10.5505 7.25334L7.015 3.7178ZM6.23375 11.604L2.07318 14.377L2.07348 14.3775L6.23375 11.604ZM31.25 49.1289H36.25V47.6151L35.4103 46.3554L31.25 49.1289ZM31.25 51.6177L28.8069 55.9801L36.25 60.1485V51.6177H31.25ZM1.86125 35.159L-0.58604 39.5191L-0.58188 39.5214L1.86125 35.159ZM0.6175 35.1715L-1.91145 30.8582L-1.91148 30.8582L0.6175 35.1715ZM2.5 38.3827L4.94301 34.0202L-2.5 29.8521V38.3827H2.5ZM31.25 54.4827H36.25V51.552L33.693 50.1201L31.25 54.4827ZM33.75 50.0002V45.0002H28.75V50.0002H33.75ZM41.275 51.3702L44.3985 47.4658L44.3979 47.4654L41.275 51.3702ZM42.7313 52.5352L45.8559 48.6318L45.8547 48.6308L42.7313 52.5352ZM51.25 52.5002H46.25V57.5002H51.25V52.5002ZM61.25 52.5002V57.5002H66.25V52.5002H61.25ZM51.25 50.0002V45.0002H46.25V50.0002H51.25ZM61.25 50.0002H66.25V45.0002H61.25V50.0002ZM48.75 42.5002V37.5002H43.75V42.5002H48.75ZM63.75 47.5002V52.5002H68.75V47.5002H63.75ZM59.8684 65.5585L64.338 67.7997L64.3405 67.7946L59.8684 65.5585ZM58.1909 66.1172L55.9548 70.5894L55.9549 70.5894L58.1909 66.1172ZM57.6321 64.4398L62.1043 66.6758L62.1043 66.6758L57.6321 64.4398ZM60.1321 59.4398L55.6618 57.2001L55.66 57.2037L60.1321 59.4398ZM61.8097 58.881L59.57 63.3513L59.5736 63.3532L61.8097 58.881ZM62.3684 60.5585L66.8405 62.7946L66.8405 62.7946L62.3684 60.5585ZM54.8686 65.5585L59.3382 67.7997L59.3408 67.7946L54.8686 65.5585ZM57.3686 60.5585L61.8408 62.7946L61.8408 62.7946L57.3686 60.5585ZM56.8099 58.881L54.5702 63.3513L54.5738 63.3532L56.8099 58.881ZM55.1324 59.4398L50.6621 57.2001L50.6602 57.2037L55.1324 59.4398ZM52.6324 64.4398L57.1045 66.6758L57.1045 66.6758L52.6324 64.4398ZM53.1911 66.1172L50.955 70.5894L50.9551 70.5894L53.1911 66.1172ZM49.8689 65.5585L54.3384 67.7997L54.341 67.7946L49.8689 65.5585ZM48.1914 66.1172L45.9553 70.5894L45.9554 70.5894L48.1914 66.1172ZM47.6326 64.4398L52.1047 66.6758L52.1047 66.6758L47.6326 64.4398ZM50.1326 59.4398L45.6623 57.2001L45.6605 57.2037L50.1326 59.4398ZM51.8101 58.881L49.574 63.3531L49.574 63.3532L51.8101 58.881ZM52.3689 60.5585L56.841 62.7946L56.841 62.7946L52.3689 60.5585ZM72.5 57.5001C74.5714 57.5001 76.25 59.1787 76.25 61.2501H66.25C66.25 64.7016 69.0486 67.5001 72.5 67.5001V57.5001ZM68.75 61.2501C68.75 59.1787 70.4286 57.5001 72.5 57.5001V67.5001C75.9514 67.5001 78.75 64.7016 78.75 61.2501H68.75ZM65 57.5002C67.0636 57.5002 68.75 59.1866 68.75 61.2501H78.75C78.75 53.6637 72.5864 47.5002 65 47.5002V57.5002ZM63.75 57.5002H65V47.5002H63.75V57.5002ZM58.75 50.0002V52.5002H68.75V50.0002H58.75ZM65 45.0002H63.75V55.0002H65V45.0002ZM61.25 48.7502C61.25 46.6787 62.9286 45.0002 65 45.0002V55.0002C68.4514 55.0002 71.25 52.2016 71.25 48.7502H61.25ZM61.25 46.2502V48.7502H71.25V46.2502H61.25ZM60 45.0002C60.6848 45.0002 61.25 45.5654 61.25 46.2502H71.25C71.25 40.0425 66.2077 35.0002 60 35.0002V45.0002ZM47.5 45.0002H60V35.0002H47.5V45.0002ZM51.25 41.2502C51.25 43.3216 49.5714 45.0002 47.5 45.0002V35.0002C44.0486 35.0002 41.25 37.7988 41.25 41.2502H51.25ZM51.25 46.2502V41.2502H41.25V46.2502H51.25ZM50.4294 45.0606C50.8672 45.2168 51.25 45.6574 51.25 46.2502H41.25C41.25 50.098 43.7303 53.2886 47.0706 54.4797L50.4294 45.0606ZM53.75 52.4139V49.7702H43.75V52.4139H53.75ZM41.1678 54.487C43.2294 56.1363 45.6817 57.0886 48.168 57.3799L49.332 47.4479C48.5758 47.3593 47.9156 47.079 47.4147 46.6783L41.1678 54.487ZM39.7115 53.322L41.1678 54.487L47.4147 46.6783L45.9585 45.5133L39.7115 53.322ZM37.3688 52.5002C38.2124 52.5002 39.0531 52.7952 39.7111 53.3217L45.9589 45.5136C43.5269 43.5677 40.4826 42.5002 37.3688 42.5002V52.5002ZM33.1688 52.5002H37.3688V42.5002H33.1688V52.5002ZM4.1535 12.9913L29.0085 50.2737L37.329 44.7267L12.474 7.44428L4.1535 12.9913ZM5.24697 1.94976C2.30251 4.89421 1.84174 9.52512 4.15404 12.9921L12.4735 7.44347C12.8083 7.94546 12.7425 8.59638 12.318 9.02084L5.24697 1.94976ZM8.59822 -1.40148L5.24697 1.94976L12.318 9.02084L15.6693 5.6696L8.59822 -1.40148ZM8.59822 3.9021C7.13434 2.43823 7.13434 0.0623927 8.59822 -1.40148L15.6693 5.66959C18.1107 3.22822 18.1107 -0.727605 15.6693 -3.16898L8.59822 3.9021ZM13.9018 3.9021C12.4379 5.36597 10.0621 5.36597 8.59822 3.9021L15.6693 -3.16898C13.2279 -5.61034 9.27209 -5.61034 6.83072 -3.16898L13.9018 3.9021ZM10.5505 7.25334L13.9018 3.9021L6.83072 -3.16898L3.47947 0.182263L10.5505 7.25334ZM10.3943 8.83101C10.0693 8.34336 10.1363 7.66753 10.5505 7.25334L3.47947 0.182263C-0.306334 3.96806 -0.894303 9.92471 2.07318 14.377L10.3943 8.83101ZM35.4103 46.3554L10.394 8.83055L2.07348 14.3775L27.0897 51.9024L35.4103 46.3554ZM36.25 51.6177V49.1289H26.25V51.6177H36.25ZM-0.58188 39.5214L28.8069 55.9801L33.6931 47.2552L4.30438 30.7965L-0.58188 39.5214ZM3.14645 39.4847C2.00274 40.1553 0.580942 40.1741 -0.586039 39.5191L4.30854 30.7988C2.36656 29.7088 -0.000242207 29.7376 -1.91145 30.8582L3.14645 39.4847ZM5 36.2502C5 37.5744 4.29887 38.809 3.14648 39.4847L-1.91148 30.8582C-3.83137 31.9839 -5 34.0385 -5 36.2502H5ZM5 46.2502V36.2502H-5V46.2502H5ZM18.75 60.0001C11.1727 60.0001 5 53.8275 5 46.2502H-5C-5 59.3503 5.64984 70.0001 18.75 70.0001V60.0001ZM20.2675 60.0001H18.75V70.0001H20.2675V60.0001ZM16.5175 63.7501C16.5175 61.6787 18.1961 60.0001 20.2675 60.0001V70.0001C23.7189 70.0001 26.5175 67.2016 26.5175 63.7501H16.5175ZM20.2675 67.5001C18.1961 67.5001 16.5175 65.8216 16.5175 63.7501H26.5175C26.5175 60.2987 23.7189 57.5001 20.2675 57.5001V67.5001ZM18.75 67.5001H20.2675V57.5001H18.75V67.5001ZM-2.5 46.2502C-2.5 57.9716 7.02859 67.5001 18.75 67.5001V57.5001C12.5514 57.5001 7.5 52.4487 7.5 46.2502H-2.5ZM-2.5 38.3827V46.2502H7.5V38.3827H-2.5ZM33.693 50.1201L4.94301 34.0202L0.0569882 42.7452L28.807 58.8452L33.693 50.1201ZM36.25 56.2502V54.4827H26.25V56.2502H36.25ZM32.5 52.5001C34.5714 52.5001 36.25 54.1787 36.25 56.2502H26.25C26.25 59.7016 29.0486 62.5001 32.5 62.5001V52.5001ZM28.75 56.2502C28.75 54.1787 30.4286 52.5001 32.5 52.5001V62.5001C35.9514 62.5001 38.75 59.7016 38.75 56.2502H28.75ZM28.75 50.0002V56.2502H38.75V50.0002H28.75ZM37.37 45.0002H33.75V55.0002H37.37V45.0002ZM44.3979 47.4654C42.407 45.8731 39.9196 45.0002 37.37 45.0002V55.0002C37.6479 55.0002 37.933 55.0997 38.1521 55.2749L44.3979 47.4654ZM45.8547 48.6308L44.3985 47.4658L38.1515 55.2745L39.6078 56.4395L45.8547 48.6308ZM49.7588 50.0002C48.348 50.0002 46.9542 49.5109 45.8559 48.6318L39.6066 56.4386C42.4808 58.7394 46.0794 60.0002 49.7588 60.0002V50.0002ZM65.0013 50.0002H49.7588V60.0002H65.0013V50.0002ZM76.25 61.2501C76.25 55.0438 71.2102 50.0002 65.0013 50.0002V60.0002C65.6848 60.0002 66.25 60.564 66.25 61.2501H76.25ZM51.25 57.5002H61.25V47.5002H51.25V57.5002ZM46.25 50.0002V52.5002H56.25V50.0002H46.25ZM61.25 45.0002H51.25V55.0002H61.25V45.0002ZM66.25 52.5002V50.0002H56.25V52.5002H66.25ZM60 37.5002H48.75V47.5002H60V37.5002ZM68.75 46.2502C68.75 41.4213 64.8289 37.5002 60 37.5002V47.5002C59.3061 47.5002 58.75 46.9441 58.75 46.2502H68.75ZM68.75 47.5002V46.2502H58.75V47.5002H68.75ZM50 52.5002H63.75V42.5002H50V52.5002ZM43.75 46.2502C43.75 49.7004 46.5498 52.5002 50 52.5002V42.5002C52.0727 42.5002 53.75 44.1775 53.75 46.2502H43.75ZM43.75 42.5002V46.2502H53.75V42.5002H43.75ZM27.5005 70C27.5005 67.2477 29.7481 65.0001 32.5005 65.0001V55.0001C24.2253 55.0001 17.5005 61.7249 17.5005 70H27.5005ZM32.5005 75C29.7481 75 27.5005 72.7523 27.5005 70H17.5005C17.5005 78.2752 24.2253 85 32.5005 85V75ZM37.5005 70C37.5005 72.7523 35.2528 75 32.5005 75V85C40.7756 85 47.5005 78.2752 47.5005 70H37.5005ZM32.5005 65.0001C35.2528 65.0001 37.5005 67.2477 37.5005 70H47.5005C47.5005 61.7249 40.7756 55.0001 32.5005 55.0001V65.0001ZM20.0005 70C20.0005 76.8977 25.6028 82.5 32.5005 82.5V72.5C31.1256 72.5 30.0005 71.3748 30.0005 70H20.0005ZM32.5005 57.5C25.6028 57.5 20.0005 63.1024 20.0005 70H30.0005C30.0005 68.6252 31.1256 67.5001 32.5005 67.5001V57.5ZM45.0005 70C45.0005 63.1024 39.3981 57.5 32.5005 57.5V67.5001C33.8753 67.5001 35.0005 68.6252 35.0005 70H45.0005ZM32.5005 82.5C39.3981 82.5 45.0005 76.8977 45.0005 70H35.0005C35.0005 71.3748 33.8753 72.5 32.5005 72.5V82.5ZM70 72.4998C70 71.125 71.1252 69.9998 72.5 69.9998V59.9998C65.6023 59.9998 60 65.6021 60 72.4998H70ZM72.5 74.9998C71.1252 74.9998 70 73.8746 70 72.4998H60C60 79.3975 65.6023 84.9998 72.5 84.9998V74.9998ZM75 72.4998C75 73.8746 73.8748 74.9998 72.5 74.9998V84.9998C79.3977 84.9998 85 79.3975 85 72.4998H75ZM72.5 69.9998C73.8748 69.9998 75 71.125 75 72.4998H85C85 65.6021 79.3977 59.9998 72.5 59.9998V69.9998ZM62.5 72.4998C62.5 78.0187 66.9811 82.4998 72.5 82.4998V72.4998V72.4998H62.5ZM72.5 62.4998C66.9811 62.4998 62.5 66.9809 62.5 72.4998H72.5V72.4998V62.4998ZM82.5 72.4998C82.5 66.9809 78.0189 62.4998 72.5 62.4998V72.4998V72.4998H82.5ZM72.5 82.4998C78.0189 82.4998 82.5 78.0187 82.5 72.4998H72.5V72.4998V82.4998ZM61.2496 66.2503H46.0109V76.2503H61.2496V66.2503ZM67.4996 72.5003C67.4996 69.0488 64.7011 66.2503 61.2496 66.2503V76.2503C59.1782 76.2503 57.4996 74.5717 57.4996 72.5003H67.4996ZM61.2496 78.7503C64.701 78.7503 67.4996 75.9517 67.4996 72.5003H57.4996C57.4996 70.4288 59.1782 68.7503 61.2496 68.7503V78.7503ZM46.0109 78.7503H61.2496V68.7503H46.0109V78.7503ZM39.7609 72.5003C39.7609 75.9517 42.5595 78.7503 46.0109 78.7503V68.7503C48.0823 68.7503 49.7609 70.4288 49.7609 72.5003H39.7609ZM46.0109 66.2503C42.5595 66.2503 39.7609 69.0488 39.7609 72.5003H49.7609C49.7609 74.5717 48.0823 76.2503 46.0109 76.2503V66.2503ZM58.7484 71.2497C61.0256 71.2497 63.2376 69.9941 64.338 67.7997L55.3988 63.3173C56.0592 62.0004 57.3887 61.2497 58.7484 61.2497V71.2497ZM55.9549 70.5894C56.8404 71.0321 57.7973 71.2497 58.7484 71.2497V61.2497C59.3245 61.2497 59.9014 61.3823 60.4269 61.6451L55.9549 70.5894ZM53.16 62.2037C51.6176 65.2885 52.8649 69.0444 55.9548 70.5894L60.427 61.6451C62.2819 62.5726 63.0292 64.826 62.1043 66.6758L53.16 62.2037ZM55.66 57.2037L53.16 62.2037L62.1043 66.6758L64.6043 61.6758L55.66 57.2037ZM64.0493 54.4107C60.9484 52.8571 57.2008 54.1283 55.6618 57.2001L64.6025 61.6795C63.681 63.5188 61.4334 64.285 59.57 63.3513L64.0493 54.4107ZM66.8405 62.7946C68.3829 59.7098 67.1357 55.9539 64.0457 54.4089L59.5736 63.3532C57.7186 62.4257 56.9714 60.1722 57.8963 58.3224L66.8405 62.7946ZM64.3405 67.7946L66.8405 62.7946L57.8963 58.3224L55.3963 63.3224L64.3405 67.7946ZM50.399 63.3173C51.0594 62.0004 52.3889 61.2497 53.7486 61.2497V71.2497C56.0258 71.2497 58.2379 69.9941 59.3382 67.7997L50.399 63.3173ZM52.8965 58.3224L50.3965 63.3224L59.3408 67.7946L61.8408 62.7946L52.8965 58.3224ZM54.5738 63.3532C52.7188 62.4257 51.9716 60.1722 52.8965 58.3224L61.8408 62.7946C63.3832 59.7098 62.1359 55.9539 59.0459 54.4089L54.5738 63.3532ZM59.6027 61.6795C58.6812 63.5188 56.4336 64.285 54.5702 63.3513L59.0496 54.4107C55.9486 52.8571 52.2011 54.1283 50.6621 57.2001L59.6027 61.6795ZM57.1045 66.6758L59.6045 61.6758L50.6602 57.2037L48.1602 62.2037L57.1045 66.6758ZM55.4272 61.6451C57.2821 62.5726 58.0294 64.826 57.1045 66.6758L48.1603 62.2037C46.6178 65.2885 47.8651 69.0444 50.955 70.5894L55.4272 61.6451ZM53.7486 61.2497C54.3247 61.2497 54.9016 61.3823 55.4271 61.6451L50.9551 70.5894C51.8406 71.0321 52.7976 71.2497 53.7486 71.2497V61.2497ZM48.7489 71.2497C51.0261 71.2497 53.2381 69.9941 54.3384 67.7997L45.3993 63.3173C46.0596 62.0004 47.3891 61.2497 48.7489 61.2497V71.2497ZM45.9554 70.5894C46.8408 71.0321 47.7978 71.2497 48.7489 71.2497V61.2497C49.3249 61.2497 49.9019 61.3823 50.4274 61.6451L45.9554 70.5894ZM43.1605 62.2037C41.618 65.2885 42.8653 69.0444 45.9553 70.5894L50.4275 61.6451C52.2824 62.5726 53.0297 64.826 52.1047 66.6758L43.1605 62.2037ZM45.6605 57.2037L43.1605 62.2037L52.1047 66.6758L54.6047 61.6758L45.6605 57.2037ZM54.0462 54.4089C50.9465 52.859 47.2017 54.1276 45.6623 57.2001L54.6029 61.6795C53.6811 63.5195 51.4337 64.283 49.574 63.3531L54.0462 54.4089ZM56.841 62.7946C58.3834 59.7098 57.1362 55.9539 54.0462 54.4089L49.574 63.3532C47.7191 62.4257 46.9718 60.1722 47.8967 58.3224L56.841 62.7946ZM54.341 67.7946L56.841 62.7946L47.8967 58.3224L45.3967 63.3224L54.341 67.7946Z" fill="black" mask="url(#path-1-inside-1_627_2851)"/>
</svg>
